<svg width="16" height="16" viewBox="0 0 16 16" fill="none" xmlns="http://www.w3.org/2000/svg">
<path fill-rule="evenodd" clip-rule="evenodd" d="M2.62478 2.63247L0.183832 3.00014L0 1.77966L3.66142 1.22817L4.21291 4.88958L2.99244 5.07341L2.62478 2.63247Z" fill="#707276"/>
<path fill-rule="evenodd" clip-rule="evenodd" d="M3.50024 1.53116C1.45478 2.96007 0.1168 5.33198 0.1168 8.0164C0.1168 12.3825 3.65618 15.9218 8.02223 15.9218C12.3883 15.9218 15.9277 12.3825 15.9277 8.0164C15.9277 3.66297 12.4087 0.131443 8.06009 0.111053L8.03504 1.11098C11.8429 1.11789 14.9277 4.2069 14.9277 8.0164C14.9277 11.8302 11.836 14.9218 8.02223 14.9218C4.20847 14.9218 1.1168 11.8302 1.1168 8.0164C1.1168 5.82671 2.13598 3.87507 3.72584 2.60995L3.50024 2.61576V1.99864V1.53116Z" fill="#707276"/>
</svg>
